<?xml version="1.0" encoding="utf-8"?>
<!-- Generator: Adobe Illustrator 19.1.0, SVG Export Plug-In . SVG Version: 6.00 Build 0)  -->
<svg version="1.1" id="year2004" xmlns="http://www.w3.org/2000/svg" xmlns:xlink="http://www.w3.org/1999/xlink" x="0px" y="0px" viewBox="179.6 149 160 160" enable-background="new 179.6 149 160 160" xml:space="preserve">
	<path fill="#1C6CAB" d="M316.2,169H203c-1.9,0-3.4,1.5-3.4,3.4v113.2c0,1.9,1.5,3.4,3.4,3.4h113.2c1.9,0,3.4-1.5,3.4-3.4V172.4 C319.6,170.5,318.1,169,316.2,169z M232.7,251.7H212v-20.7h20.7V251.7z M232.7,226.9H212v-20.7h20.7V226.9z M232.7,202.1H212v-20.7 h20.7V202.1z M257.5,276.6h-20.7v-20.7h20.7V276.6z M257.5,226.9h-20.7v-20.7h20.7V226.9z M257.5,202.1h-20.7v-20.7h20.7V202.1z M282.4,276.6h-20.7v-20.7h20.7V276.6z M282.4,251.7h-20.7v-20.7h20.7V251.7z M282.4,202.1h-20.7v-20.7h20.7V202.1z M307.2,276.6 h-20.7v-20.7h20.7V276.6z M307.2,251.7h-20.7v-20.7h20.7V251.7z M307.2,226.9h-20.7v-20.7h20.7V226.9z"/>
</svg>
