<?xml version="1.0" encoding="utf-8"?>
<!-- Generator: Adobe Illustrator 19.1.0, SVG Export Plug-In . SVG Version: 6.00 Build 0)  -->
<svg version="1.1" id="year2011" xmlns="http://www.w3.org/2000/svg" xmlns:xlink="http://www.w3.org/1999/xlink" x="0px" y="0px"
	 viewBox="801.1 149 160 160" enable-background="new 801.1 149 160 160" xml:space="preserve">
<g>
	<path fill="#3C8BCA" d="M842,200c0,8.7-7.1,15.8-15.8,15.8c-8.7,0-15.8-7.1-15.8-15.8c0-8.7,7.1-15.8,15.8-15.8
		C834.9,184.2,842,191.3,842,200z"/>
	<polygon fill="#3C8BCA" points="851.4,261.4 801.1,261.4 801.1,222.7 826.2,219.5 851.4,222.7 	"/>
	<path fill="#3C8BCA" d="M896.6,218c0,8.7-7.1,15.8-15.8,15.8c-8.7,0-15.8-7.1-15.8-15.8c0-8.7,7.1-15.8,15.8-15.8
		C889.5,202.2,896.6,209.3,896.6,218z"/>
	<polygon fill="#3C8BCA" points="906,279.4 855.7,279.4 855.7,240.8 880.8,237.5 906,240.8 	"/>
	<path fill="#3C8BCA" d="M951.6,194.3c0,8.7-7.1,15.8-15.8,15.8c-8.7,0-15.8-7.1-15.8-15.8c0-8.7,7.1-15.8,15.8-15.8
		C944.6,178.6,951.6,185.6,951.6,194.3z"/>
	<polygon fill="#3C8BCA" points="961.1,255.7 910.7,255.7 910.7,217.1 935.9,213.9 961.1,217.1 	"/>
	<polygon fill="#94C4E9" points="855.7,279.4 906,240.8 906,279.4 	"/>
	<polygon fill="#94C4E9" points="910.7,255.7 961,217.1 961,255.7 	"/>
	<polygon fill="#94C4E9" points="801.1,261.4 851.4,222.7 851.4,261.4 	"/>
</g>
</svg>
