<?xml version="1.0" encoding="utf-8"?>
<!-- Generator: Adobe Illustrator 19.1.0, SVG Export Plug-In . SVG Version: 6.00 Build 0)  -->
<svg version="1.1" id="year2015" xmlns="http://www.w3.org/2000/svg" xmlns:xlink="http://www.w3.org/1999/xlink" x="0px" y="0px"
	 viewBox="801.1 368.3 160 160" enable-background="new 801.1 368.3 160 160" xml:space="preserve">
<rect x="857.2" y="404.6" fill="#95C5E9" width="87" height="90.1"/>
<polygon fill="#3D8CCB" points="904.9,481.7 834.9,481.7 817.9,391.6 904.9,391.6 "/>
<line fill="none" stroke-linecap="round" stroke-miterlimit="10" stroke-width="1.7737" stroke="#1C6CAB" x1="817.9" y1="391.6" x2="842" y2="519.1"/>
<polygon fill="#1C6CAB" points="904.9,481.7 857.2,481.7 857.2,494.7 "/>
<g>
	<path fill="#1C6CAB" d="M895.7,427.7c0-8.3-6.7-15-15-15c-4.6,0-8.8,2.1-11.5,5.4c-2.8-3.3-6.9-5.4-11.5-5.4c-8.3,0-15,6.7-15,15
		c0,4.2,1.7,8,4.5,10.7l0,0l22.1,22.1l4.7-4.7l18-18l-0.1-0.1C894.2,435.2,895.7,431.6,895.7,427.7z"/>
</g>
</svg>
