<?xml version="1.0" encoding="utf-8"?>
<!-- Generator: Adobe Illustrator 16.0.4, SVG Export Plug-In . SVG Version: 6.00 Build 0)  -->
<svg version="1.1" id="year2012" xmlns="http://www.w3.org/2000/svg" xmlns:xlink="http://www.w3.org/1999/xlink" x="0px" y="0px" viewBox="0 0 160 160" enable-background="new 0 0 160 160" xml:space="preserve">
	<g>
		<path fill="#408DCA" d="M79.998,0.613c-43.841,0-79.385,35.544-79.385,79.386c0,43.845,35.544,79.388,79.385,79.388
			c43.846,0,79.389-35.543,79.389-79.388C159.385,36.157,123.84,0.613,79.998,0.613z M79.998,131.408
			c-28.843,0-52.226-23.384-52.226-52.228c0-28.845,23.383-52.229,52.226-52.229c28.846,0,52.229,23.385,52.229,52.229
			C132.227,108.024,108.842,131.408,79.998,131.408z"/>
		<polygon fill="#FFF" points="19.687,83.267 19.794,84.582 14.578,89.375 20.162,88.908 20.278,90.301 12.203,90.978
			12.104,89.793 17.474,84.86 11.728,85.338 11.612,83.942 	"/>
		<path fill="#FFF" d="M16.671,93.687l0.023-0.002c2.208-0.567,4.493,0.67,5.108,3.071c0.615,2.408-0.775,4.56-2.987,5.123
			l-0.02,0.011c-2.209,0.563-4.492-0.666-5.113-3.076C13.067,96.403,14.464,94.252,16.671,93.687z M18.402,100.447l0.023-0.011
			c1.524-0.388,2.502-1.819,2.107-3.375c-0.402-1.558-1.922-2.323-3.447-1.937l-0.022,0.002c-1.521,0.396-2.509,1.83-2.108,3.383
			C15.353,100.069,16.876,100.838,18.402,100.447z"/>
		<polygon fill="#FFF" points="23.559,103.082 24.093,104.287 20.725,110.533 25.854,108.26 26.424,109.541 19.011,112.832
			18.526,111.738 21.984,105.315 16.716,107.653 16.144,106.371 	"/>

			<rect x="22.709" y="114.439" transform="matrix(0.5105 0.8599 -0.8599 0.5105 110.9504 35.3522)" fill="#FFF" width="3.43" height="1.377"/>
		<path fill="#FFF" d="M30.279,115.963l1.916,2.555c1.137,1.506,0.989,3.107-0.316,4.092l-0.018,0.01
			c-1.454,1.096-3.088,0.498-4.157-0.93l-0.966-1.289l-2.082,1.568l-0.855-1.143L30.279,115.963z M28.755,120.959
			c0.649,0.855,1.533,1.035,2.206,0.521l0.02-0.012c0.759-0.568,0.748-1.414,0.108-2.266l-0.991-1.324l-2.334,1.752L28.755,120.959z"
			/>
		<path fill="#FFF" d="M35.329,122.436L37.881,125c0.718,0.723,1.064,1.5,1.072,2.229c-0.012,0.617-0.27,1.211-0.77,1.709
			l-0.016,0.02c-0.943,0.938-2.075,0.934-3.103,0.354l-0.64,3.713l-1.182-1.188l0.602-3.402l-1.256-1.27l-2.005,1.996l-1.004-1.014
			L35.329,122.436z M34.955,127.756c0.716,0.723,1.552,0.807,2.139,0.229l0.016-0.018c0.612-0.615,0.512-1.389-0.232-2.135
			l-1.461-1.475l-1.928,1.922L34.955,127.756z"/>
		<path fill="#FFF" d="M39.051,131.76l0.015-0.018c1.346-1.84,3.892-2.348,5.905-0.879c2.005,1.473,2.295,4.014,0.949,5.854
			l-0.014,0.021c-1.348,1.84-3.893,2.344-5.899,0.877C37.998,136.145,37.71,133.6,39.051,131.76z M44.684,135.875l0.015-0.023
			c0.931-1.268,0.777-2.998-0.523-3.945c-1.296-0.951-2.959-0.576-3.889,0.695l-0.016,0.016c-0.926,1.273-0.772,3.008,0.523,3.955
			C42.093,137.518,43.755,137.143,44.684,135.875z"/>
		<polygon fill="#FFF" points="50.315,134.582 55.665,137.359 55.07,138.5 50.981,136.387 49.963,138.35 53.588,140.225
			52.991,141.379 49.367,139.5 47.85,142.426 46.588,141.77 	"/>

			<rect x="55.868" y="137.997" transform="matrix(0.9289 0.3703 -0.3703 0.9289 56.6279 -10.8536)" fill="#FFF" width="1.424" height="8.108"/>
		<polygon fill="#FFF" points="62.553,141.268 60.085,140.543 60.456,139.277 66.764,141.125 66.396,142.391 63.931,141.672
			62.02,148.182 60.642,147.775 	"/>
		<polygon fill="#FFF" points="97.479,140.068 103.178,138.102 103.6,139.324 99.245,140.832 99.963,142.916 103.825,141.584
			104.248,142.807 100.387,144.137 101.463,147.256 100.116,147.717 	"/>
		<path fill="#FFF" d="M106.65,141.096l-0.01-0.018c-1.063-2.021-0.397-4.527,1.808-5.691c2.198-1.16,4.61-0.293,5.682,1.717
			l0.007,0.029c1.065,2.012,0.393,4.527-1.81,5.684C110.125,143.975,107.711,143.117,106.65,141.096z M112.827,137.848l-0.013-0.021
			c-0.731-1.396-2.356-2.014-3.778-1.271c-1.431,0.756-1.82,2.412-1.088,3.809l0.01,0.02c0.735,1.396,2.358,2.016,3.783,1.268
			C113.163,140.898,113.561,139.238,112.827,137.848z"/>
		<path fill="#FFF" d="M114.182,132.217l2.896-2.16c0.811-0.609,1.639-0.848,2.357-0.756c0.604,0.096,1.155,0.439,1.582,1
			l0.018,0.014c0.799,1.068,0.633,2.191-0.078,3.127l3.59,1.145l-1.348,1.006l-3.285-1.068l-1.428,1.068l1.695,2.264l-1.146,0.857
			L114.182,132.217z M119.4,133.336c0.818-0.611,1.011-1.424,0.521-2.084l-0.012-0.016c-0.521-0.695-1.306-0.695-2.147-0.066
			l-1.66,1.236l1.631,2.176L119.4,133.336z"/>
		<path fill="#FFF" d="M123.659,124.338l2.141-2.373c1.261-1.406,2.859-1.57,4.068-0.484l0.022,0.021
			c1.351,1.219,1.078,2.932-0.115,4.258l-1.073,1.195l1.937,1.744l-0.947,1.061L123.659,124.338z M128.85,124.873
			c0.726-0.809,0.729-1.705,0.099-2.273l-0.021-0.014c-0.709-0.639-1.535-0.461-2.244,0.332l-1.106,1.229l2.168,1.949L128.85,124.873
			z"/>
		<path fill="#FFF" d="M129.032,118.133l2.016-2.989c0.57-0.843,1.267-1.343,1.979-1.49c0.604-0.104,1.232,0.031,1.826,0.427
			l0.016,0.012c1.105,0.744,1.322,1.854,0.959,2.977l3.764-0.104l-0.939,1.395l-3.45,0.066l-0.996,1.48l2.338,1.578l-0.789,1.182
			L129.032,118.133z M134.321,117.472c0.567-0.845,0.485-1.679-0.193-2.142l-0.021-0.012c-0.719-0.488-1.465-0.23-2.055,0.643
			l-1.156,1.715l2.261,1.523L134.321,117.472z"/>
		<path fill="#FFF" d="M137.456,112.651l-0.021-0.014c-2.071-0.955-3.063-3.361-2.02-5.619c1.047-2.256,3.492-3.041,5.559-2.082
			l0.021,0.011c2.067,0.959,3.065,3.358,2.021,5.614C141.969,112.822,139.523,113.606,137.456,112.651z M140.389,106.31l-0.024-0.011
			c-1.423-0.664-3.097-0.168-3.771,1.291c-0.675,1.468,0.022,3.019,1.444,3.681l0.022,0.015c1.437,0.662,3.104,0.174,3.779-1.291
			C142.51,108.539,141.821,106.974,140.389,106.31z"/>
		<polygon fill="#FFF" points="138.036,101.054 139.713,95.265 140.957,95.623 139.674,100.049 141.799,100.664 142.936,96.74
			144.172,97.099 143.043,101.022 146.206,101.935 145.814,103.301 	"/>
		<polygon fill="#FFF" points="140.104,92.963 140.359,91.56 148.336,92.992 148.088,94.39 	"/>
		<polygon fill="#FFF" points="142.29,86.858 142.094,89.42 140.782,89.326 141.268,82.774 142.588,82.871 142.391,85.429
			149.152,85.938 149.047,87.369 	"/>
		<polygon fill="#FFF" points="19.164,48.399 19.846,47.149 25.814,50.422 27.861,46.688 28.998,47.308 26.269,52.292 	"/>
		<path fill="#FFF" d="M26.254,44.025l-0.022-0.011c-1.827-1.365-2.306-3.918-0.817-5.913c1.489-1.992,4.038-2.254,5.866-0.891
			l0.02,0.015c1.825,1.362,2.306,3.913,0.813,5.908C30.632,45.126,28.08,45.393,26.254,44.025z M30.426,38.437l-0.02-0.013
			c-1.263-0.942-2.997-0.809-3.956,0.482c-0.963,1.285-0.604,2.954,0.656,3.895l0.023,0.013c1.258,0.943,2.99,0.81,3.952-0.479
			C32.045,41.044,31.687,39.378,30.426,38.437z"/>
		<path fill="#FFF" d="M32.852,35.552l-0.019-0.013c-1.61-1.649-1.695-4.206,0.062-5.919c1.065-1.044,2.08-1.304,3.149-1.314
			l0.085,1.392c-0.888,0.022-1.67,0.219-2.331,0.862c-1.107,1.086-1.02,2.786,0.088,3.918l0.017,0.015
			c1.107,1.138,2.816,1.277,3.931,0.195c0.71-0.694,0.884-1.431,0.928-2.382l1.297,0.026c0.013,1.22-0.265,2.262-1.351,3.327
			C37.022,37.305,34.479,37.218,32.852,35.552z"/>
		<path fill="#FFF" d="M39.926,23.809l1.068-0.774l7.664,4.544l-1.221,0.88l-1.81-1.109l-3.111,2.237l0.465,2.08l-1.182,0.852
			L39.926,23.809z M44.469,26.628l-3.03-1.816l0.763,3.447L44.469,26.628z"/>
		<polygon fill="#FFF" points="46.405,19.613 47.668,18.953 50.828,24.978 54.597,22.999 55.199,24.146 50.167,26.783 	"/>
		<path fill="#FFF" d="M59.062,18.223l-0.007-0.022c-0.643-2.216,0.494-4.508,2.854-5.189c1.435-0.415,2.451-0.164,3.398,0.334
			l-0.585,1.267c-0.791-0.401-1.57-0.595-2.461-0.34c-1.493,0.431-2.22,1.967-1.779,3.49l0.007,0.025
			c0.44,1.523,1.881,2.457,3.372,2.028c0.957-0.276,1.455-0.845,1.942-1.663l1.139,0.641c-0.57,1.078-1.303,1.871-2.762,2.292
			C61.909,21.74,59.707,20.459,59.062,18.223z"/>
		<path fill="#FFF" d="M67.966,15.765l-0.004-0.021c-0.289-2.263,1.216-4.379,3.68-4.696c2.469-0.314,4.428,1.333,4.719,3.593
			l0.004,0.026c0.286,2.26-1.214,4.38-3.682,4.693C70.214,19.68,68.254,18.031,67.966,15.765z M74.886,14.879l-0.002-0.021
			c-0.2-1.564-1.502-2.715-3.1-2.511c-1.599,0.204-2.546,1.621-2.346,3.188l0.006,0.021c0.196,1.561,1.501,2.713,3.098,2.511
			C74.135,17.854,75.084,16.438,74.886,14.879z"/>
		<polygon fill="#FFF" points="79.207,10.533 80.723,10.595 83.027,14.518 85.648,10.79 87.159,10.848 86.838,18.939
			85.413,18.88 85.648,13.083 82.941,16.792 82.893,16.792 80.514,12.899 80.283,18.679 78.885,18.622 	"/>
		<polygon fill="#FFF" points="90.873,11.308 92.354,11.625 93.965,15.888 97.174,12.652 98.657,12.971 96.969,20.893
			95.577,20.596 96.788,14.915 93.491,18.114 93.446,18.106 91.756,13.865 90.547,19.523 89.18,19.233 	"/>
		<path fill="#FFF" d="M100.357,18.379l1.697-4.342l1.324,0.515l-1.676,4.288c-0.545,1.399-0.119,2.438,1.062,2.898
			c1.178,0.459,2.174,0.028,2.717-1.36l1.695-4.342l1.325,0.517l-1.67,4.274c-0.879,2.251-2.592,2.89-4.563,2.119
			C100.316,22.185,99.506,20.569,100.357,18.379z"/>
		<polygon fill="#FFF" points="111.682,18.076 112.821,18.739 113.754,25.765 116.568,20.921 117.784,21.627 113.707,28.632
			112.68,28.033 111.713,20.802 108.816,25.788 107.602,25.083 	"/>

			<rect x="118.015" y="23.261" transform="matrix(0.8046 0.5938 -0.5938 0.8046 39.4189 -65.1641)" fill="#FFF" width="1.42" height="8.107"/>
		<polygon fill="#FFF" points="124.946,28.856 123.045,27.129 123.93,26.156 128.797,30.566 127.911,31.546 126.01,29.817
			121.457,34.839 120.391,33.877 	"/>
		<polygon fill="#FFF" points="130.693,32.631 131.652,33.69 125.643,39.126 124.684,38.075 	"/>
		<polygon fill="#FFF" points="133.855,36.229 137.415,41.065 136.393,41.82 133.672,38.127 131.98,39.378 134.383,42.649
			133.361,43.402 130.952,40.131 129.202,41.422 131.954,45.159 130.926,45.912 127.331,41.031 	"/>
		<path fill="#FFF" d="M132.762,46.586l1.305,0.259c-0.215,1.002-0.174,1.867,0.314,2.753c0.424,0.764,1.051,1.058,1.584,0.761
			l0.023-0.014c0.504-0.275,0.621-0.714,0.199-2.197c-0.469-1.711-0.496-2.81,0.813-3.532l0.021-0.009
			c1.218-0.672,2.619-0.123,3.396,1.284c0.572,1.035,0.711,2.028,0.526,3.066l-1.311-0.148c0.125-0.9,0.027-1.679-0.332-2.327
			c-0.406-0.729-1.014-0.949-1.479-0.69l-0.021,0.012c-0.545,0.302-0.614,0.759-0.186,2.3c0.463,1.7,0.354,2.778-0.82,3.426
			l-0.022,0.011c-1.322,0.735-2.691,0.124-3.512-1.367C132.663,49.091,132.471,47.857,132.762,46.586z"/>
		<circle fill="#FFF" cx="17.779" cy="58.693" r="1.112"/>
		<circle fill="#FFF" cx="15.073" cy="69.1" r="1.11"/>
		<circle fill="#FFF" cx="14.63" cy="74.183" r="1.11"/>
		<path fill="#FFF" d="M14.964,63.964c0.026,0.613,0.538,1.095,1.155,1.066c0.605-0.022,1.088-0.532,1.066-1.146
			c-0.023-0.616-0.54-1.093-1.151-1.07C15.422,62.837,14.945,63.352,14.964,63.964z"/>
		<path fill="#FFF" d="M74.074,147.109c0.591-0.152,0.947-0.76,0.792-1.354c-0.152-0.594-0.762-0.949-1.35-0.801
			c-0.595,0.158-0.952,0.768-0.797,1.359C72.873,146.912,73.478,147.266,74.074,147.109z"/>
		<circle fill="#FFF" cx="84.541" cy="146.429" r="1.112"/>
		<path fill="#FFF" d="M89.877,146.836c0.598-0.154,0.953-0.756,0.799-1.354c-0.154-0.594-0.76-0.951-1.354-0.797
			c-0.591,0.156-0.953,0.764-0.8,1.361C88.68,146.633,89.286,146.992,89.877,146.836z"/>
		<circle fill="#FFF" cx="79.272" cy="146.568" r="1.111"/>
		<circle fill="#FFF" cx="145.79" cy="74.716" r="1.11"/>
		<path fill="#FFF" d="M144.307,63.064c0.613,0,1.109,0.496,1.109,1.107c0,0.613-0.496,1.109-1.109,1.109
			c-0.608,0-1.106-0.496-1.106-1.109C143.2,63.561,143.698,63.064,144.307,63.064z"/>
		<circle fill="#FFF" cx="142.42" cy="59.405" r="1.11"/>
		<path fill="#FFF" d="M146.4,68.745c-0.289-0.541-0.959-0.749-1.504-0.456c-0.537,0.284-0.746,0.957-0.459,1.497
			c0.287,0.546,0.963,0.749,1.506,0.462C146.482,69.957,146.684,69.287,146.4,68.745z"/>

			<rect x="58.555" y="58.751" transform="matrix(0.7108 0.7034 -0.7034 0.7108 62.8389 -31.2869)" fill="#3D8DCC" width="21.825" height="4.049"/>
		<polygon fill="#97C6EA" points="63.705,91.578 60.84,88.715 97.42,52.078 117.152,71.708 97.434,91.426 82.498,76.562
			85.355,73.701 97.426,85.711 111.42,71.715 97.434,57.795 	"/>
		<polygon fill="#3D8DCC" points="80.589,108.336 43.61,71.398 63.315,51.669 66.179,54.528 49.331,71.396 80.587,102.619
			92.686,90.519 95.547,93.381 	"/>

			<rect x="123.676" y="128.209" transform="matrix(0.7593 0.6508 -0.6508 0.7593 114.499 -49.6453)" fill="#FFF" width="1.351" height="3.456"/>
	</g>
</svg>
