<?xml version="1.0" encoding="utf-8"?>
<!-- Generator: Adobe Illustrator 19.1.0, SVG Export Plug-In . SVG Version: 6.00 Build 0)  -->
<svg version="1.1" id="year2014" xmlns="http://www.w3.org/2000/svg" xmlns:xlink="http://www.w3.org/1999/xlink" x="0px" y="0px"
	 viewBox="601.6 368.3 160 160" enable-background="new 601.6 368.3 160 160" xml:space="preserve">
<circle fill="#95C5E9" cx="681.6" cy="448.3" r="66.9"/>
<g>
	<path fill="#3D8CCB" d="M668.3,407c3.3-1.5,15.3-13.8,15.3-13.8l3.9-5.9l-1.9-5.8c-1.3-0.1-2.6-0.1-4-0.1c-8.3,0-16.2,1.5-23.5,4.3
		c0.1,0.7,3.2,17.2,3.2,17.2S666.3,407,668.3,407z"/>
	<path fill="#3D8CCB" d="M707.1,409h3.9v5.9h-3.9l-5.9,3.9l2,5.9h-5.9v5.9h5.9l5.9-3.9l7.9-2h9.8l3.9,5.9l2.9,8.8L741,450h3.8l3.6-5.4
		c-1.2-22.4-13.5-41.9-31.5-53.1l-9.7,11.6V409z"/>
	<path fill="#3D8CCB" d="M659.9,495.5l5.9-3.9l7.9-9.8v-3.9l3.9-3.9l-2-5.9l-11.8-3.9l-2-3.9H656l-2-3.9h-11.8l-5.9,2l-5.9-7.9h-5.9
		v-5.9l9.8-2l2,3.9h3.9l-2-3.9l2-7.9l5.9-5.9h5.9l-2-3.9l2-3.9l5.9,3.9l3.9-3.9L650.1,409l-2,2l-2-2l-5.9-3.9v5.9l-3.9,9.8l-2-5.9
		c0,0-6-1.2-9.6-1.9c-6.1,9.7-9.7,21.2-10.1,33.4l3.9,1.9v3.9l3.9,2h5.9l3.9,2l2,3.9h7.9l-2,3.9l-3.9,5.9l3.9,3.9l2,3.9l5.9,3.9
		c0,0,0,22.8,0,24.5c1.2,0.7,2.4,1.3,3.6,2L659.9,495.5z"/>
	<path fill="#3D8CCB" d="M738.6,463.1l7.9-3.9v-7.4l-5.6,2.5l-4.2-2.9l-3.9-9.8l-9.8-5.9l-3.9,2l-5.9-5.9h-5.9l-5.9,2l-2,2l-7.9,7.9
		v11.8l5.9,5.9h3.9l9.8-2l3.9,9.8l3.9,11.8v7.9l3.9,5.9l8.7-1.8c4.3-4.9,7.9-10.4,10.7-16.3l-3.6-5.5V463.1z"/>
</g>
</svg>
