<?xml version="1.0" encoding="utf-8"?>
<!-- Generator: Adobe Illustrator 19.1.0, SVG Export Plug-In . SVG Version: 6.00 Build 0)  -->
<svg version="1.1" id="year2013" xmlns="http://www.w3.org/2000/svg" xmlns:xlink="http://www.w3.org/1999/xlink" x="0px" y="0px"
	 viewBox="388.7 368.3 160 160" enable-background="new 388.7 368.3 160 160" xml:space="preserve">
<g>
	<g>
		<polygon fill="#95C5E9" points="513.4,517.7 495.6,512.1 483,525.8 470.6,479.3 500.9,471.2"/>
		<polygon fill="#95C5E9" points="423.9,517.7 441.7,512.1 454.3,525.8 466.8,479.3 436.4,471.2"/>
	</g>
	<g>
		<path fill="#1C6CAB" d="M522,439.8c3.3,7.8,1.7,15.3-4.2,20.8c0.2,8.1-4,14.2-11.4,17c-2.8,7.5-8.9,11.6-17,11.4
			c-5.5,5.9-12.9,7.5-20.8,4.2c-7.8,3.3-15.3,1.7-20.8-4.2c-8.1,0.2-14.2-4-17-11.4c-7.5-2.8-11.6-8.9-11.4-17
			c-5.9-5.5-7.5-12.9-4.2-20.8c-3.3-7.8-1.7-15.3,4.2-20.8c-0.2-8.1,4-14.2,11.4-17c2.8-7.5,8.9-11.6,17-11.4
			c5.5-5.9,12.9-7.5,20.8-4.2c7.8-3.3,15.3-1.7,20.8,4.2c8.1-0.2,14.2,4,17,11.4c7.5,2.8,11.6,8.9,11.4,17
			C523.7,424.6,525.3,432,522,439.8z"/>
	</g>
	<circle fill="#95C5E9" cx="468.7" cy="439.8" r="45"/>
	<path fill="#3D8CCB" d="M457,483.3c-24-6.4-38.3-31.1-31.8-55.1s31.1-38.3,55.1-31.8L457,483.3z"/>
</g>
</svg>
