<?xml version="1.0" encoding="utf-8"?>
<!-- Generator: Adobe Illustrator 19.1.0, SVG Export Plug-In . SVG Version: 6.00 Build 0)  -->
<svg version="1.1" id="year2010" xmlns="http://www.w3.org/2000/svg" xmlns:xlink="http://www.w3.org/1999/xlink" x="0px" y="0px"
	 viewBox="601.6 149 160 160" enable-background="new 601.6 149 160 160" xml:space="preserve">
<g>
	<g>
		<g>
			<path fill="#1D396B" d="M606.6,214.8h1.4v18.3h8.7v1.2h-10.1V214.8z"/>
			<path fill="#1D396B" d="M622.3,214.8v19.5H621v-19.5H622.3z"/>
			<path fill="#1D396B" d="M628.5,214.8h9.6v1.2h-8.2v7.7h7.6v1.2h-7.6v9.4h-1.4V214.8z"/>
			<path fill="#1D396B" d="M652.5,224.6h-7.8v8.5h8.7v1.2h-10.1v-19.5h9.6v1.2h-8.2v7.5h7.8V224.6z"/>
			<path fill="#1D396B" d="M658.2,215c1.2-0.3,2.9-0.4,4.2-0.4c2.5,0,4.2,0.5,5.3,1.6c0.8,0.8,1.4,2.1,1.4,3.5c0,2.6-1.6,4.3-3.8,5.1
				v0.1c1.6,0.5,2.5,2,3,4.1c0.7,3,1,4.5,1.4,5.3h-1.4c-0.3-0.6-0.7-2.3-1.2-4.7c-0.6-2.8-1.8-4.1-4.4-4.2h-3v8.9h-1.4V215z
				 M659.6,224.2h3.1c3,0,5-1.7,5-4.2c0-3-2.2-4.2-5.3-4.2c-1.3,0-2.3,0.1-2.8,0.3V224.2z"/>
			<path fill="#1D396B" d="M676.6,227.4l-2.4,6.8h-1.4l7.1-19.5h1.3l7,19.5h-1.4l-2.5-6.8H676.6z M683.9,226.3l-2.4-6.5
				c-0.5-1.4-0.7-2.3-1-3.4h-0.1c-0.3,1.1-0.6,2.1-1,3.4l-2.4,6.6H683.9z"/>
			<path fill="#1D396B" d="M694.9,234.3v-8.4l-6.2-11h1.5l3.2,5.8c0.8,1.5,1.5,2.8,2.2,4.2h0.1c0.6-1.3,1.4-2.7,2.3-4.2l3.3-5.8h1.5
				l-6.6,11.1v8.4H694.9z"/>
			<path fill="#3F7CBE" d="M723.5,224.6h-7.8v8.5h8.7v1.2h-10.1v-19.5h9.6v1.2h-8.2v7.5h7.8V224.6z"/>
			<path fill="#3F7CBE" d="M733.7,234.3l-6.5-19.5h1.4l3.4,10.4c0.9,2.8,1.7,5.3,2.3,7.5h0.1c0.6-2.2,1.5-4.7,2.5-7.5l3.8-10.4h1.5
				l-7.2,19.5H733.7z"/>
			<path fill="#3F7CBE" d="M745.7,215c1.1-0.2,2.5-0.4,4.2-0.4c2.3,0,4.1,0.6,5.1,1.6c1,0.9,1.5,2.2,1.5,3.8c0,1.7-0.5,2.9-1.4,3.9
				c-1.2,1.4-3.3,2.2-5.7,2.2c-0.9,0-1.7,0-2.4-0.2v8.3h-1.4V215z M747.1,224.7c0.7,0.2,1.5,0.3,2.5,0.3c3.5,0,5.6-1.7,5.6-4.8
				c0-3.1-2.2-4.5-5.3-4.5c-1.3,0-2.2,0.1-2.7,0.2V224.7z"/>
		</g>
	</g>
	<g>
		<rect x="625.3" y="241.2" fill="#3F7CBE" width="19" height="2.1"/>
		<rect x="644" y="241.2" fill="#1D396B" width="19" height="2.1"/>
		<rect x="606.6" y="241.2" fill="#39629E" width="19" height="2.1"/>
		<rect x="718.9" y="241.2" fill="#3F7CBE" width="19" height="2.1"/>
		<rect x="737.6" y="241.2" fill="#1D396B" width="19" height="2.1"/>
		<rect x="700.2" y="241.2" fill="#7AB3E1" width="19" height="2.1"/>
		<rect x="662.7" y="241.2" fill="#39629E" width="19" height="2.1"/>
		<rect x="681.4" y="241.2" fill="#3F7CBE" width="19" height="2.1"/>
	</g>
</g>
</svg>
