<?xml version="1.0" encoding="utf-8"?>
<!-- Generator: Adobe Illustrator 19.1.0, SVG Export Plug-In . SVG Version: 6.00 Build 0)  -->
<svg version="1.1" id="year2008" xmlns="http://www.w3.org/2000/svg" xmlns:xlink="http://www.w3.org/1999/xlink" x="0px" y="0px"
	 viewBox="388.7 149 160 160" enable-background="new 388.7 149 160 160" xml:space="preserve">
<g>
	<g>
		<g>
			<path fill="#1D396B" stroke-miterlimit="10" stroke-width="0.8015" stroke="#1D396B" d="M399,198.4h2v25.8h13.4v1.8H399V198.4z"/>
			<path fill="#1D396B" stroke-miterlimit="10" stroke-width="0.8015" stroke="#1D396B" d="M419.7,198.4h2V226h-2V198.4z"/>
			<path fill="#1D396B" stroke-miterlimit="10" stroke-width="0.8015" stroke="#1D396B" d="M429,198.4h16.3v1.8h-14.3v11.4h12.9v1.8h-12.9V226h-2V198.4z"/>
			<path fill="#1D396B" stroke-miterlimit="10" stroke-width="0.8015" stroke="#1D396B" d="M450.6,198.4h16.5v1.8h-14.6v11h13.1v1.8h-13.1v11.2h14.8v1.8h-16.7V198.4z"/>
			<path fill="#1D396B" stroke-miterlimit="10" stroke-width="0.8015" stroke="#1D396B" d="M472.9,198.4h9.1c3.1,0,5.6,1,7.1,2.5c1.3,1.3,2.1,3.3,2.1,5.4v0.1c0,4.5-3,7.1-7.1,7.9l7.9,11.8h-2.4
				l-7.7-11.4h-7.2V226h-2V198.4z M481.5,212.8c5.1,0,7.9-2.5,7.9-6.4v-0.1c0-3.9-2.8-6.2-7.5-6.2h-7v12.7H481.5z"/>
			<path fill="#1D396B" stroke-miterlimit="10" stroke-width="0.8015" stroke="#1D396B" d="M505.6,198.2h2l10.8,27.8h-2.1l-2.9-7.7h-13.5l-2.9,7.7h-2L505.6,198.2z M512.5,216.5l-6-15.9l-6.1,15.9
				H512.5z"/>
			<path fill="#1D396B" stroke-miterlimit="10" stroke-width="0.8015" stroke="#1D396B" d="M526.7,214.7l-10-16.4h2.3l8.7,14.5l8.7-14.5h2.3l-10,16.3V226h-2V214.7z"/>
		</g>
	</g>
	<g>
		<path fill="#3F7CBE" d="M399.4,236h7.7v1.3h-6.3v4.6h5.7v1.3h-5.7v5.6h-1.4V236z"/>
		<path fill="#3F7CBE" d="M412.1,242.5v-0.1c0-3.8,2.3-6.5,5.5-6.5c3.2,0,5.5,2.8,5.5,6.5v0.1c0,3.8-2.2,6.5-5.5,6.5
			C414.3,249,412.1,246.2,412.1,242.5z M421.6,242.5v-0.1c0-3.1-1.7-5.3-4.1-5.3c-2.4,0-4.1,2.2-4.1,5.3v0.1c0,3.1,1.7,5.3,4.1,5.3
			C419.9,247.7,421.6,245.5,421.6,242.5z"/>
		<path fill="#3F7CBE" d="M428.9,244v-8h1.4v8c0,2.4,1.2,3.7,3.2,3.7c2,0,3.2-1.3,3.2-3.7v-8h1.4v7.9c0,3.3-1.8,5-4.6,5
			C430.7,249,428.9,247.2,428.9,244z"/>
		<path fill="#3F7CBE" d="M444.4,236h1.3l6.7,10v-10h1.3v12.8h-1.1l-6.8-10.3v10.3h-1.3V236z"/>
		<path fill="#3F7CBE" d="M460.1,236h3.6c3.6,0,6,2.6,6,6.3v0.1c0,3.7-2.4,6.3-6,6.3h-3.6V236z M461.5,237.3v10.2h2.2
			c2.8,0,4.6-2,4.6-5.1v-0.1c0-3-1.8-5.1-4.6-5.1H461.5z"/>
		<path fill="#3F7CBE" d="M478.9,235.9h1.4l4.9,12.8h-1.5l-1.2-3.4h-5.7l-1.2,3.4h-1.4L478.9,235.9z M482,244.2l-2.4-6.5l-2.4,6.5H482z
			"/>
		<path fill="#3F7CBE" d="M492.1,237.3h-3.6V236h8.5v1.3h-3.6v11.5h-1.4V237.3z"/>
		<path fill="#3F7CBE" d="M502.8,236h1.4v12.8h-1.4V236z"/>
		<path fill="#3F7CBE" d="M510.2,242.5v-0.1c0-3.8,2.3-6.5,5.5-6.5c3.2,0,5.5,2.8,5.5,6.5v0.1c0,3.8-2.2,6.5-5.5,6.5
			C512.5,249,510.2,246.2,510.2,242.5z M519.8,242.5v-0.1c0-3.1-1.7-5.3-4.1-5.3c-2.4,0-4.1,2.2-4.1,5.3v0.1c0,3.1,1.7,5.3,4.1,5.3
			C518.1,247.7,519.8,245.5,519.8,242.5z"/>
		<path fill="#3F7CBE" d="M527.2,236h1.3l6.7,10v-10h1.3v12.8h-1.1l-6.8-10.3v10.3h-1.3V236z"/>
	</g>
	<g>
		<rect x="416.1" y="257.2" fill="#3F7CBE" width="17.6" height="2.7"/>
		<rect x="433.5" y="257.2" fill="#1D396B" width="17.7" height="2.7"/>
		<rect x="398.7" y="257.2" fill="#39629E" width="17.6" height="2.7"/>
		<rect x="503" y="257.2" fill="#3F7CBE" width="17.7" height="2.7"/>
		<rect x="520.4" y="257.2" fill="#1D396B" width="17.7" height="2.7"/>
		<rect x="485.7" y="257.2" fill="#7AB3E1" width="17.6" height="2.7"/>
		<rect x="450.9" y="257.2" fill="#39629E" width="17.7" height="2.7"/>
		<rect x="468.3" y="257.2" fill="#3F7CBE" width="17.6" height="2.7"/>
	</g>
</g>
</svg>
