<?xml version="1.0" encoding="utf-8"?>
<!DOCTYPE svg PUBLIC "-//W3C//DTD SVG 1.1//EN" "http://www.w3.org/Graphics/SVG/1.1/DTD/svg11.dtd">
<svg xmlns="http://www.w3.org/2000/svg" width="140" height="122" viewBox="0 0 140 122">
	<path fill="none" d="M-25.505 107.407h173.1v34.3h-173.1z"/>

	<path d="M87.19 72.41s-18.8 16.2-27.2 23.4c-5.7 4.9-3.5 3-3.9 3.3-1.8 1.5-5.8 2.4-8.5-.7-2.6-3.1-.7-7.3-.7-7.3l33-28s-24.6 20.9-26.2 22.2c-1.6 1.4-5.6 2.2-8.3-1-2.7-3.2 0-7.8 0-7.8l42.1-35.8-14.6 12.4s-6 2.2-8.7-1c-2.7-3.2 0-7.8 0-7.8l26.9-22.8s22.1-12.3 39.5 8.2c18.8 22.2-.1 38.2-.1 38.2l-45.1 38.3s-5.6 3.1-8.3-.1c-2.5-2.9-2.5-6.6.2-8.9l20-17-31 26.3s-4.6 2.1-7.8-1.7c0 0-3.9-4.9 1.2-8.9" fill="#2FBEC1"/>

	<path d="M85.69 106.01l37.5-83.2s-1.5-2.5 10.4 10.3c9.8 10.5 5.5 22.3 3.4 26-2.1 3.7-4.8 7.5-19.4 19.8-14.6 12.4-31.9 27.1-31.9 27.1z" fill="#A7DCE1"/>

	<path d="M81.89 108.51c-1.9.2-3.9 0-5.4-1.8-1.4-1.7-2.1-3.6-2.1-5.4l-7.2 6.1c-1.9.9-6.2 1.5-9.2-2-.8-1.1-1.7-2.9-1.7-4.9l-.2.2h-.1c-1.1.6-2.4 1-3.7 1-2.1 0-4-.9-5.4-2.5-3.1-3.6-1-8.4-.9-8.6l.3-.4 3-2.6c-1.6-.2-3.3-1-4.7-2.6-3.2-3.8-.2-8.9-.1-9.2l.2-.3 24.3-20.6c-1.9 0-4.1-.4-5.6-2.2-3.2-3.8-.2-8.9-.1-9.2l.2-.3 26.9-22.8c.4-.3 23.3-12.6 41.1 8.3 10.1 11.9 9.5 22.1 7.2 28.6-2.4 7-7.2 11.1-7.4 11.3l-45.1 38.3c0 .2-2 1.3-4.3 1.6zm-3.6-10.5c-2.1 1.8-2.1 4.8 0 7.2 2 2.4 6.8-.2 6.8-.2l44.9-38.1c.7-.6 17.8-15.6-.1-36.6-16.1-19-36.1-8.9-37.9-8l-26.6 22.6c-.4.8-2 4.1-.1 6.3 1.7 2 5.6 1.3 7.2.7l14.4-12.2 1.5 1.8-42 35.6c-.4.8-2 4.1-.1 6.3 2.2 2.6 5.5 1.9 6.6.9l26.2-22.2 1.5 1.8-26.2 22.2-6.6 5.6c-.3.8-1.2 3.7.6 5.8 1.2 1.4 2.6 1.7 3.6 1.7 1.4 0 2.5-.5 3.1-1l.5-.4c.6-.6 1.6-1.4 3-2.6.1-.1.3-.2.4-.4 8.3-7.1 27-23.2 27.2-23.3l1.5 1.8c-.2.2-18.9 16.3-27.2 23.4-.1.1-.3.2-.4.3-3.5 3.2-.8 6.8-.6 7 2.3 2.7 5.6 1.7 6.3 1.4l10.7-9.1.1-.1 20-17 1.5 1.8-19.8 17z" fill="#FFF"/>

	<g>
		<path d="M53.99 72.41s18.8 16.2 27.2 23.4c5.7 4.9 3.5 3 3.9 3.3 1.8 1.5 5.8 2.4 8.5-.7 2.6-3.1.7-7.3.7-7.3l-33-28s24.6 20.9 26.2 22.2c1.6 1.4 5.6 2.2 8.3-1 2.7-3.2 0-7.8 0-7.8l-42.1-35.8 14.6 12.4s6 2.2 8.7-1c2.7-3.2 0-7.8 0-7.8l-26.9-22.8s-22.1-12.3-39.5 8.2c-18.8 22.2.1 38.2.1 38.2l45.1 38.3s5.6 3.1 8.3-.1c2.5-2.9 2.5-6.6-.2-8.9l-20-17 31 26.3s4.6 2.1 7.8-1.7c0 0 3.9-4.9-1.2-8.9" fill="#2FBEC1"/>

		<path d="M55.49 106.11l-37.5-83.2s1.5-2.5-10.4 10.3c-9.8 10.5-5.5 22.3-3.4 26 2.1 3.7 4.8 7.5 19.4 19.8 14.6 12.3 31.9 27.1 31.9 27.1z" fill="#A7DCE1"/>

		<path d="M59.29 108.51c-2.3-.3-4.2-1.4-4.3-1.4l-45.3-38.4c-.2-.2-5-4.3-7.4-11.3-2.3-6.5-2.8-16.7 7.2-28.6 17.8-21 40.7-8.6 40.9-8.5l27.3 23.2c.1.2 3.2 5.4-.1 9.2-1.5 1.7-3.6 2.2-5.5 2.2l24.5 20.9c.1.2 3.2 5.4-.1 9.2-1.4 1.6-3 2.4-4.7 2.6l3.3 3c.1.2 2.2 4.9-.9 8.6-1.4 1.6-3.3 2.5-5.4 2.5-1.2 0-2.5-.3-3.5-.9l-.1.1-.4-.3c0 2-.8 3.8-1.7 4.9-3 3.5-7.3 2.9-9.2 2l-.3-.2-6.9-5.9c0 1.8-.7 3.7-2.1 5.4-1.4 1.7-3.4 2-5.3 1.7zm-3-3.3c.1 0 4.6 2.4 6.6.1 2.1-2.4 2-5.4 0-7.2l-20.1-17.1 1.5-1.8 20 17 .1.1 10.7 9.1c.7.3 4 1.3 6.3-1.4.3-.4 2.8-3.8-.7-6.9-.1-.1-.3-.2-.4-.3-8.3-7.1-27-23.2-27.2-23.4l1.5-1.8c.2.2 18.8 16.3 27.2 23.3.2.1.3.2.4.4 1.3 1.1 2.2 1.9 2.9 2.5l.5.4c.6.5 1.8 1.1 3.2 1.1 1 0 2.4-.3 3.6-1.7 1.8-2.1.9-5 .6-5.8l-6.6-5.6-26.2-22.2 1.5-1.8 26.2 22.2c1.2 1 4.4 1.7 6.6-.9 1.9-2.2.3-5.5-.1-6.3l-42-35.6 1.5-1.8 14.4 12.2c1.6.5 5.5 1.3 7.2-.7 1.9-2.2.3-5.5-.1-6.3l-26.2-22.7c-1.8-.9-21.8-11-37.9 8-7.5 8.9-9.8 17.7-6.8 26.3 2.2 6.4 6.7 10.2 6.7 10.3l45.1 38.3z" fill="#FFF"/>
	</g>
</svg>