<?xml version="1.0" encoding="utf-8"?>
<!DOCTYPE svg PUBLIC "-//W3C//DTD SVG 1.1//EN" "http://www.w3.org/Graphics/SVG/1.1/DTD/svg11.dtd">
<svg xmlns="http://www.w3.org/2000/svg" width="122" height="122" viewBox="0 0 122 122">
	<path fill="none" d="M-25.505 107.407h173.1v34.3h-173.1z"/>

	<path d="M120.276 60.92c0 32.68-26.396 59.126-59.015 59.126-32.62 0-59.014-26.445-59.014-59.125S28.64 1.797 61.26 1.797c32.62 0 59.016 26.445 59.016 59.125z" fill="#2FBEC1"/>

	<path d="M103.537 19.64l-83.48 83.636c10.623 10.535 25.216 16.77 41.31 16.77 32.513 0 58.8-26.337 58.8-58.91.11-16.232-6.115-30.852-16.63-41.495z" fill="#A7DCE1"/>

	<path stroke-miterlimit="10" fill="none" stroke="#2A8F8C" stroke-width="1.774" d="M188.2 278.5V313h35.4" transform="matrix(1.073 0 0 1.075 -140.678 -275.554)"/>

	<path d="M66.626 60.92c0-2.902-2.36-5.374-5.365-5.374-2.897 0-5.364 2.365-5.364 5.375s2.36 5.376 5.365 5.376c2.898-.108 5.366-2.473 5.366-5.375z" fill="#2A8F8C"/>

	<path stroke-miterlimit="10" fill="none" stroke="#2A8F8C" stroke-width="1.774" d="M188.2 258v4.8M187.9 363v4.8M137.9 312.8h-4.8M243.2 312.8h-4.8M227 274.2l-3.4 3.4M152.5 348.3l-3.4 3.4M226.8 351.9l-3.4-3.4M152.7 277.4l-3.4-3.4" transform="matrix(1.073 0 0 1.075 -140.678 -275.554)"/>
</svg>