<?xml version="1.0" encoding="utf-8"?>
<!DOCTYPE svg PUBLIC "-//W3C//DTD SVG 1.1//EN" "http://www.w3.org/Graphics/SVG/1.1/DTD/svg11.dtd">
<svg xmlns="http://www.w3.org/2000/svg" xmlns:xlink="http://www.w3.org/1999/xlink" width="130" height="122" viewBox="0 0 130 122">
	<path fill="none" d="M-25.505 107.407h173.1v34.3h-173.1z"/>
	<g transform="matrix(1.07 0 0 1.093 -370.456 -279.08)">
		<defs>
			<path id="a" d="M370.1 339.5l96.3-16.9v-29.8L441 272l-93.3 13v31z"/>
		</defs>

		<clipPath id="b"><use xlink:href="#a" overflow="visible" width="792" height="612"/></clipPath>

		<path clip-path="url(#b)" fill="#2FBEC1" d="M370.1 339.5l96.3-15.7v-31L441 272l-93.3 13v31"/>

		<path clip-path="url(#b)" fill="#A7DCE1" d="M466.4 292.9l-95 16.5L441 272M466.4 323.8v-29.9l-96.1 16.6-.2 30.5"/>

		<g clip-path="url(#b)">
			<defs>
				<path id="c" d="M369.5 370.1l96.9-17.7v-61.7l-27.3-25.1-94.6 12.7v62.2z"/>
			</defs>

			<clipPath id="d"><use xlink:href="#c" overflow="visible" width="792" height="612"/></clipPath>

			<g clip-path="url(#d)">
				<path fill="#2A8F8C" d="M342.9 279l28.4 30.3 97.5-16.8.5 3-99.1 17.1-29.5-31.6"/>
			</g>

			<g clip-path="url(#d)">
				<path fill="#2A8F8C" d="M342.9 289.1l28.4 30.4 97.5-16.8.5 2.9-99.1 17.1-29.5-31.5"/>
			</g>

			<g clip-path="url(#d)">
				<path fill="#2A8F8C" d="M342.9 299.3l28.4 30.3 97.5-16.8.5 3-99.1 17.1-29.5-31.6"/>
			</g>

			<g clip-path="url(#d)">
				<path stroke-miterlimit="10" d="M341.8 330.8" fill="none" stroke="#2A8F8C" stroke-width="1.176"/>
			</g>
		</g>
	</g>

	<path d="M104.624 57.455c-6.313 0-11.342 2.404-11.342 5.246v40.66c0 1.86 5.136 5.03 11.342 5.03s11.342-3.062 11.342-5.14V62.7c.107-2.84-5.03-5.245-11.342-5.245z" fill="#A7DCE1"/>

	<path d="M104.624 109.81c-6.42 0-12.733-3.17-12.733-6.45V62.7c0-3.824 5.458-6.666 12.734-6.666s12.733 2.842 12.733 6.667v40.55c0 3.39-6.206 6.56-12.733 6.56zm0-50.934c-6.1 0-9.95 2.295-9.95 3.934v40.66c.213.874 4.172 3.607 9.95 3.607 6.1 0 9.844-2.842 9.95-3.716V62.81c.108-1.64-3.85-3.934-9.95-3.934z" fill="#2A8F8C"/>

	<path d="M104.624 77.13c-7.383 0-12.09-3.28-12.305-3.39l1.497-2.295s4.28 2.95 10.7 2.95c6.527 0 10.7-2.84 10.7-2.95l1.498 2.295c0 .22-4.708 3.39-12.09 3.39zM104.624 85.217c-7.383 0-12.09-3.28-12.305-3.388l1.497-2.297s4.28 2.95 10.7 2.95c6.527 0 10.7-2.84 10.7-2.95l1.498 2.296c0 .108-4.708 3.387-12.09 3.387zM104.624 93.305c-7.383 0-12.09-3.28-12.305-3.388l1.497-2.296s4.28 2.953 10.7 2.953c6.527 0 10.7-2.842 10.7-2.842l1.498 2.296s-4.708 3.28-12.09 3.28zM104.624 101.065c-7.383 0-12.09-3.28-12.305-3.388l1.497-2.295s4.28 2.95 10.7 2.95c6.527 0 10.7-2.84 10.7-2.95l1.498 2.295c0 .11-4.708 3.388-12.09 3.388z" fill="#2a8f8c"/>

	<g transform="matrix(1.07 0 0 1.093 -370.456 -279.08)">
		<ellipse cx="444" cy="312.8" rx="10.6" ry="4.8" fill="#A7DCE1"/>

		<path d="M444 318.9c-6.8 0-11.9-2.6-11.9-6.1 0-3.5 5.1-6.1 11.9-6.1 6.8 0 11.9 2.6 11.9 6.1 0 3.4-5.1 6.1-11.9 6.1zm0-9.7c-5.7 0-9.3 2.1-9.3 3.6s3.6 3.6 9.3 3.6c5.7 0 9.3-2.1 9.3-3.6.1-1.5-3.6-3.6-9.3-3.6z" fill="#2A8F8C"/>
	</g>

	<g>
		<path d="M74.664 64.778c-6.313 0-11.342 2.404-11.342 5.246V95.49c0 1.86 5.136 4.264 11.342 4.264 6.313 0 11.45-2.405 11.45-4.482l-.108-25.357c0-2.842-5.03-5.137-11.342-5.137z" fill="#A7DCE1"/>

		<path d="M74.664 101.175c-6.1 0-12.733-2.296-12.733-5.684V70.025c0-3.825 5.458-6.667 12.734-6.667s12.733 2.842 12.733 6.667l.107 25.358c0 3.497-6.634 5.793-12.84 5.793zm0-35.086c-6.1 0-9.95 2.295-9.95 3.934V95.49c.32.766 4.172 2.952 9.95 2.952 6.206 0 9.95-2.295 10.165-3.06l-.108-25.358c-.107-1.64-3.96-3.935-10.058-3.935z" fill="#2A8F8C"/>
	</g>

	<g>
		<path d="M74.664 84.452c-7.383 0-12.09-3.28-12.305-3.388l1.497-2.296s4.28 2.95 10.7 2.95c6.527 0 10.7-2.84 10.7-2.95l1.498 2.296c0 .11-4.708 3.388-12.09 3.388z" fill="#2A8F8C"/>
	</g>

	<g>
		<path d="M74.664 92.43c-7.383 0-12.09-3.278-12.305-3.388l1.497-2.295s4.28 2.95 10.7 2.95c6.527 0 10.7-2.84 10.7-2.95l1.498 2.295c0 .22-4.708 3.39-12.09 3.39z" fill="#2A8F8C"/>
	</g>

	<g>
		<path d="M86.006 70.024c0 2.95-5.136 5.247-11.342 5.247-6.313 0-11.342-2.404-11.342-5.246 0-2.95 5.136-5.246 11.342-5.246 6.313 0 11.342 2.295 11.342 5.246z" fill="#A7DCE1"/>
		<path d="M74.664 76.692c-7.276 0-12.733-2.842-12.733-6.668 0-3.825 5.458-6.667 12.734-6.667s12.733 2.842 12.733 6.667c0 3.826-5.457 6.668-12.733 6.668zm0-10.603c-6.1 0-9.95 2.295-9.95 3.934 0 1.64 3.85 3.935 9.95 3.935s9.95-2.296 9.95-3.936c0-1.64-3.85-3.935-9.95-3.935z" fill="#2A8F8C"/>
	</g>
</svg>