<svg class="svg" version="1.1" id="signature" xmlns="http://www.w3.org/2000/svg" xmlns:xlink="http://www.w3.org/1999/xlink" x="0px" y="0px" viewBox="0 0 220 110" style="enable-background:new 0 0 220 110;" xml:space="preserve">
	<path class="path bryan" d="M30.7,64.7c-12.1-19.6-11-54-5.2-55.8C34.9,6,55.2,21.7,10,46.5c31.5-11.7,51.3,1.6,13.7,27.9 c7-21.6,32.5-38.1,35.8-31.3c2,4.3-14.2,16.4-11.9,19.3c2,2.7,10.6-4.7,12.3-5.6c-7.1,8.5,4.2,2.5,7.5,6.1 c4.7,5,14.4,35.1,1.3,38.2C56.8,104,50.5,81.5,56.1,72.8c6.1-9.4,33.1-16,48.4-15.1"/>
	<path class="path h-one" d="M76.6,31.2c5.4,18,0,42.3,0,42.3"/>
	<path class="path h-two" d="M90.3,31.2c-3.4,14.2,0,36.7-3.4,44.1"/>
	<path class="path cheung" d="M124.7,61.8c17.5-26.3,11.2-47.2,0-47.2c-20.2,0-36.2,58-11.7,60.7c10.1,1.1,60-7.5,62.5-13 c3.8-8.3-13-17.1-17.8-11.9c-4,4.4,25,37.8,20,43.9c-2.9,3.5-16.6,1.7-17.1,0C157.8,83.6,203,67.6,210,57.1"/>
</svg>