<?xml version="1.0" encoding="utf-8"?>
<!DOCTYPE svg PUBLIC "-//W3C//DTD SVG 1.1//EN" "http://www.w3.org/Graphics/SVG/1.1/DTD/svg11.dtd">
<svg version="1.1" id="Layer_2" xmlns="http://www.w3.org/2000/svg" xmlns:xlink="http://www.w3.org/1999/xlink" x="0px" y="0px"
	 width="290px" height="60px" viewBox="0 0 290 60" enable-background="new 0 0 290 60" xml:space="preserve">
	<g>
		<polygon fill="#FFFFFF" points="57.2,41.7 41.8,26.5 44.8,23.5 57.2,35.8 71.4,21.5 57.2,7.3 24.2,40.4 21.2,37.4 57.2,1.3 77.4,21.5"/>
	</g>
	<g>
		<polygon fill="#FFFFFF" points="39.9,59.1 2,21.2 22.2,0.9 38.1,16.7 35.1,19.7 22.2,6.9 8,21.2 39.9,53.1 52.3,40.7 55.3,43.7"/>
	</g>
	<g>
		<path fill="#FFFFFF" d="M92,22.2h1.8v23.5H106v1.7H92V22.2z"/>
		<path fill="#FFFFFF" d="M110.9,22.2h1.8v25.2h-1.8V22.2z"/>
		<path fill="#FFFFFF" d="M119.4,22.2h14.9v1.7h-13.1v10.4h11.7v1.7h-11.7v11.5h-1.8V22.2z"/>
		<path fill="#FFFFFF" d="M139.1,22.2h15.1v1.7h-13.3v10h12v1.7h-12v10.2h13.5v1.7h-15.3V22.2z"/>
		<path fill="#FFFFFF" d="M159.5,22.2h8.3c2.8,0,5.1,0.9,6.5,2.3c1.2,1.2,1.9,3,1.9,4.9v0.1c0,4.1-2.7,6.5-6.4,7.2l7.2,10.7h-2.2 l-7-10.4h-6.6v10.4h-1.8V22.2z M167.2,35.4c4.6,0,7.2-2.3,7.2-5.8v-0.1c0-3.6-2.6-5.7-6.8-5.7h-6.4v11.6H167.2z"/>
		<path fill="#FFFFFF" d="M189.6,22h1.8l9.8,25.4h-1.9l-2.7-7.1h-12.3l-2.7,7.1h-1.8L189.6,22z M196,38.7l-5.5-14.5l-5.5,14.5H196z"
			/>
		<path fill="#FFFFFF" d="M209.3,37.1l-9.1-14.9h2.1l7.9,13.2l7.9-13.2h2.1l-9.1,14.9v10.3h-1.8V37.1z"/>
		<path fill="#FFFFFF" d="M225.6,22.2h15.9V26h-11.7v6.8h10.4v3.8h-10.4v7h11.9v3.8h-16.1V22.2z"/>
		<path fill="#FFFFFF" d="M246,22.2h4.5l6.2,19l6.2-19h4.4l-8.7,25.3h-3.9L246,22.2z"/>
		<path fill="#FFFFFF" d="M270.9,22.2h8.1c5.5,0,9.1,3.2,9.1,8.4v0.1c0,5.6-4.1,8.5-9.3,8.6h-3.6v8.2h-4.2V22.2z M278.7,35.4 c3.2,0,5.1-1.9,5.1-4.7v0c0-3-1.9-4.7-5.1-4.7h-3.6v9.4H278.7z"/>
	</g>
</svg>
