<?xml version="1.0" encoding="utf-8"?>
<!DOCTYPE svg PUBLIC "-//W3C//DTD SVG 1.1//EN" "http://www.w3.org/Graphics/SVG/1.1/DTD/svg11.dtd">
<svg version="1.1" id="Layer_1" xmlns="http://www.w3.org/2000/svg" xmlns:xlink="http://www.w3.org/1999/xlink" x="0px" y="0px"
	 width="130px" height="100px" viewBox="0 0 130 100" enable-background="new 0 0 130 100" xml:space="preserve">
<g>
	<g>
		<path fill="#FFFFFF" d="M102,42.8c-6.8,0-11.9,2.6-11.9,6.1V86c0,3,5.9,5.9,11.9,5.9c6.1,0,11.9-2.9,11.9-5.9V48.9
			C113.9,45.4,108.8,42.8,102,42.8z M111.3,79.1c-1.4,0.7-4.7,2.3-9.3,2.3c-4.6,0-8-1.5-9.3-2.3v-4.3c2,0.9,5.2,2,9.3,2
			s7.4-1.1,9.3-2V79.1z M92.6,52.7c2.1,1.4,5.5,2.2,9.3,2.2s7.2-0.9,9.3-2.3v4.5c-1.4,0.7-4.7,2.3-9.3,2.3c-4.6,0-8-1.5-9.3-2.3
			V52.7z M111.3,72c-1.4,0.7-4.7,2.3-9.3,2.3c-4.6,0-8-1.5-9.3-2.3v-4.5c2,0.9,5.2,2,9.3,2s7.4-1.1,9.3-2V72z M111.3,64.6
			c-1.4,0.7-4.7,2.3-9.3,2.3c-4.6,0-8-1.5-9.3-2.3v-4.5c2,0.9,5.2,2,9.3,2s7.4-1.1,9.3-2V64.6z M102,45.3c5.7,0,9.3,2.1,9.3,3.6
			c0,1.5-3.6,3.6-9.3,3.6c-5.7,0-9.3-2.1-9.3-3.6C92.6,47.4,96.3,45.3,102,45.3z M102,89.4c-5.4,0-9.2-2.6-9.3-3.3V82
			c2,0.9,5.2,2,9.3,2s7.4-1.1,9.3-2v4C111.2,86.8,107.7,89.4,102,89.4z"/>
	</g>
	<path fill="#FFFFFF" d="M85.9,55.5c0-3.5-5.1-6.1-11.9-6.1c-6.8,0-11.9,2.6-11.9,6.1v23.3c0,3.1,6.1,5.2,11.9,5.2
		c5.8,0,12-2.1,12-5.3L85.9,55.5z M64.6,66.7c2,0.9,5.2,2,9.3,2c4.2,0,7.4-1.1,9.4-2l0,4.5c-1.3,0.7-4.7,2.3-9.4,2.3
		c-4.6,0-8-1.5-9.3-2.3V66.7z M83.4,63.9c-1.3,0.7-4.7,2.3-9.4,2.3c-4.6,0-8-1.5-9.3-2.3v-4.5c2.1,1.4,5.5,2.3,9.3,2.3
		c3.9,0,7.2-0.9,9.4-2.3L83.4,63.9z M74,51.9c0.7,0,1.4,0,2,0.1c4.5,0.4,7.3,2.2,7.3,3.5c0,1.5-3.6,3.6-9.3,3.6s-9.3-2.1-9.3-3.6
		C64.6,54.1,68.3,51.9,74,51.9z M74,81.5c-5.5,0-9.1-1.9-9.3-2.7v-4.7c2,0.9,5.2,2,9.3,2c4.2,0,7.5-1.1,9.4-2l0,4.6
		C83.3,79.4,79.8,81.5,74,81.5z"/>
	<g>
		<polygon fill="#FFFFFF" points="5.7,45 5.7,52.1 28.1,75.6 61.4,70.2 61.4,63.2 28.1,69"/>
		<path fill="#FFFFFF" d="M5.7,34.8v5.8l23.6,25.2l32.2-5.6v-5.4c0-0.6,0.2-1.2,0.5-1.8l-33.7,5.8L5.7,34.8z"/>
		<path fill="#FFFFFF" d="M89.3,48.4c0,0,0-0.1,0-0.1l-7.8,1.3c3,1.2,4.9,3,4.9,5.2l0,1.1l2.8-0.5V48.4z"/>
		<path fill="#FFFFFF" d="M5.7,24.7v5.8l23.6,25.2l62-10.7c2.2-1.8,6.1-3,10.8-3c1.6,0,3.1,0.1,4.4,0.4l17.9-3.1v-7.1L28.1,48.7
			L5.7,24.7z"/>
		<path fill="#FFFFFF" d="M114.7,48.4V51l9.7-1.7v-7.1L112,44.4C113.7,45.5,114.7,46.9,114.7,48.4z"/>
		<polygon fill="#FFFFFF" points="99,8.1 6.3,21 29.2,45.5 124.3,29.1 124.3,28.9"/>
		<polygon fill="#FFFFFF" points="89.3,58.4 86.5,58.9 86.5,66.1 89.3,65.6"/>
		<polygon fill="#FFFFFF" points="114.7,61.5 124.3,59.9 124.3,52.4 114.7,54.1"/>
	</g>
</g>
</svg>
