<?xml version="1.0" encoding="utf-8"?>
<!DOCTYPE svg PUBLIC "-//W3C//DTD SVG 1.1//EN" "http://www.w3.org/Graphics/SVG/1.1/DTD/svg11.dtd">
<svg version="1.1" id="Layer_1" xmlns="http://www.w3.org/2000/svg" xmlns:xlink="http://www.w3.org/1999/xlink" x="0px" y="0px"
	 width="130px" height="100px" viewBox="0 0 130 100" enable-background="new 0 0 130 100" xml:space="preserve">
<g>
	<g>
		<g>
			<g>
				<path fill="#FFFFFF" d="M56.1,75.4L43.4,62.7c-0.3-0.3-0.3-0.8,0-1.1c0.3-0.3,0.8-0.3,1.1,0l19.1,19.1c0.7,0.7,3.2,2.3,5.3,0.2
					c0.1-0.1,2.3-2.7,0-5.2L51,58c-0.3-0.3-0.3-0.8,0-1.1s0.8-0.3,1.1,0l17.4,17.4c0.1,0.1,0.2,0.2,0.3,0.3l2.4,2.4
					c0.8,0.8,3,1.8,4.7,0.1c1.7-1.7,0.6-4.3,0-4.8L56.5,51.9c-0.3-0.3-0.3-0.8,0-1.1c0.3-0.3,0.8-0.3,1.1,0l16.9,16.9
					c0.8,0.8,3,1.5,4.8-0.2c1.8-1.8,0.7-4,0.1-4.6L52.5,36c-0.3-0.3-0.3-0.8,0-1.1c0.3-0.3,0.8-0.3,1.1,0l9.4,9.4
					c0.8,0.8,3.3,1.5,5-0.2c1.8-1.8,1.1-3.7,0.4-4.3L51,22.4c-9.2-9.2-21.5-1.8-26.7,3.4c-6.6,6.6-10.7,16.8-2.1,25.4l29,29
					c1.5,1.5,3.6,1.5,5.2-0.2C58.4,78.3,57.1,76.4,56.1,75.4z"/>
			</g>
		</g>
	</g>
	<g>
		<path fill="#FFFFFF" d="M62.8,81.4L60.3,79c0.2,1.1,0.9,1.9,0.9,1.9c0.7,0.7,1.4,1,2.1,1C63.1,81.7,62.9,81.5,62.8,81.4z"/>
		<path fill="#FFFFFF" d="M76.7,69.5c-0.5,0-0.9-0.1-1.3-0.2l1.3,1.3l1.3-1.3C77.5,69.4,77.1,69.5,76.7,69.5z"/>
		<path fill="#FFFFFF" d="M105.7,25.9c-5.2-5.2-17.5-12.6-26.7-3.4L65.7,35.7L69,39c0.5,0.5,0.9,1.4,1,2.3l6.4-6.4
			c0.3-0.3,0.8-0.3,1.1,0c0.3,0.3,0.3,0.8,0,1.1L65.7,47.8l4.9,4.9l1.9-1.9c0.3-0.3,0.8-0.3,1.1,0c0.3,0.3,0.3,0.8,0,1.1l-1.9,1.9
			l4.7,4.7l1.6-1.6c0.3-0.3,0.8-0.3,1.1,0s0.3,0.8,0,1.1l-1.6,1.6l2.5,2.5c0.7,0.7,1.5,2.4,1,4.1l4.6-4.6c0.3-0.3,0.8-0.3,1.1,0
			c0.3,0.3,0.3,0.8,0,1.1l-9,9c0.4,0.5,0.9,1.4,1,2.4c0.2,1.4-0.2,2.7-1.2,3.7c-0.8,0.8-1.8,1.2-2.9,1.2c-0.8,0-1.5-0.2-2-0.5
			c0.1,0.5,0.4,1.1,0.9,1.6c1.6,1.6,3.7,1.7,5.2,0.2l29-29C116.4,42.7,112.3,32.5,105.7,25.9z"/>
	</g>
</g>
</svg>
