<?xml version="1.0" encoding="utf-8"?>
<!DOCTYPE svg PUBLIC "-//W3C//DTD SVG 1.1//EN" "http://www.w3.org/Graphics/SVG/1.1/DTD/svg11.dtd">
<svg version="1.1" id="Layer_1" xmlns="http://www.w3.org/2000/svg" xmlns:xlink="http://www.w3.org/1999/xlink" x="0px" y="0px"
	 width="130px" height="100px" viewBox="0 0 130 100" enable-background="new 0 0 130 100" xml:space="preserve">
<path fill="#FFFFFF" d="M65,11.5c-21.3,0-38.5,17.2-38.5,38.5c0,21.3,17.2,38.5,38.5,38.5c21.3,0,38.5-17.2,38.5-38.5
	C103.5,28.7,86.3,11.5,65,11.5z M32.8,51.4h-3.4v-3h3.4V51.4z M63.5,14.5h3v3.4h-3V14.5z M40.7,76.2L38.6,74l2.4-2.4l2.1,2.1
	L40.7,76.2z M41.1,28.1l-2.4-2.4l2.1-2.1l2.4,2.4L41.1,28.1z M66.3,85.4h-3v-3.4h3V85.4z M65,53.5c-1.9,0-3.5-1.6-3.5-3.5
	c0-1.4,0.8-2.6,2-3.1v-21h3v21c0.7,0.3,1.3,0.9,1.6,1.6h21.7v3H68.1C67.6,52.7,66.4,53.5,65,53.5z M89,76.3l-2.4-2.4l2.1-2.1
	l2.4,2.4L89,76.3z M88.8,28.3l-2.1-2.1l2.4-2.4l2.1,2.1L88.8,28.3z M97.1,51.4v-3h3.4v3H97.1z"/>
</svg>
