<?xml version="1.0" encoding="utf-8"?>
<!DOCTYPE svg PUBLIC "-//W3C//DTD SVG 1.1//EN" "http://www.w3.org/Graphics/SVG/1.1/DTD/svg11.dtd">
<svg version="1.1" id="Layer_1" xmlns="http://www.w3.org/2000/svg" xmlns:xlink="http://www.w3.org/1999/xlink" x="0px" y="0px"
	 width="130px" height="100px" viewBox="0 0 130 100" enable-background="new 0 0 130 100" xml:space="preserve">
<g>
	<g>
		<rect x="37.1" y="12.4" fill="#FFFFFF" width="4" height="6.4"/>
		<rect x="50" y="12.4" fill="#FFFFFF" width="4" height="6.4"/>
		<rect x="62.9" y="12.4" fill="#FFFFFF" width="4" height="6.4"/>
		<rect x="75.7" y="12.4" fill="#FFFFFF" width="4" height="6.4"/>
		<rect x="87.3" y="12.4" fill="#FFFFFF" width="4" height="6.4"/>
		<g>
			<path fill="#FFFFFF" d="M58,48c-2.2,0-3.8,2.3-3.8,6.8v0.3c0,4.5,1.6,6.9,3.8,6.9c2.2,0,3.8-2.4,3.8-6.8v-0.3
				C61.9,50.4,60.3,48,58,48z"/>
			<path fill="#FFFFFF" d="M88.5,48c-2.2,0-3.8,2.3-3.8,6.8v0.3c0,4.5,1.6,6.9,3.8,6.9c2.2,0,3.8-2.4,3.8-6.8v-0.3
				C92.3,50.4,90.7,48,88.5,48z"/>
			<path fill="#FFFFFF" d="M91.3,18.8v6.4h-4v-6.4h-7.5v6.4h-4v-6.4h-8.9v6.4h-4v-6.4H54v6.4h-4v-6.4h-8.9v6.4h-4v-6.4H26.7v68.7
				h76.7V18.8H91.3z M47,65.7H33.2v-3.6l6.3-6.4c2.2-2.3,3.1-3.5,3.1-5c0-1.6-1.1-2.5-2.6-2.5c-1.5,0-2.5,0.9-3.9,2.5L33.2,48
				c1.9-2.5,4-3.9,7.1-3.9c3.9,0,6.7,2.3,6.7,6.2v0.1c0,3-1.4,4.7-4.5,7.8l-3.6,3.6H47V65.7z M66.4,55.2c0,6.5-3.3,10.8-8.3,10.8
				c-5,0-8.3-4.3-8.3-10.8v-0.4c0-6.5,3.3-10.8,8.3-10.8c5,0,8.3,4.3,8.3,10.8V55.2z M76.5,65.7h-4.3V48.8l-3.3,0.9l-0.7-3.8
				l5.3-1.6h3V65.7z M96.8,55.2c0,6.5-3.3,10.8-8.3,10.8s-8.3-4.3-8.3-10.8v-0.4c0-6.5,3.3-10.8,8.3-10.8c5,0,8.3,4.3,8.3,10.8V55.2
				z"/>
		</g>
	</g>
</g>
</svg>
