<?xml version="1.0" encoding="utf-8"?>
<!DOCTYPE svg PUBLIC "-//W3C//DTD SVG 1.1//EN" "http://www.w3.org/Graphics/SVG/1.1/DTD/svg11.dtd">
<svg version="1.1" id="Layer_1" xmlns="http://www.w3.org/2000/svg" xmlns:xlink="http://www.w3.org/1999/xlink" x="0px" y="0px"
	 width="130px" height="30px" viewBox="-25 -5 130 30" enable-background="new -25 -5 130 30" xml:space="preserve">
<g>
	<g>
		<path fill="#FFFFFF" d="M100.7,18.7c0-0.3-0.2-0.5-0.7-0.5h-0.7V20h0.3v-0.8h0.3l0.5,0.8h0.3l-0.5-0.8
			C100.6,19.2,100.7,19.1,100.7,18.7z M100.1,19.1h-0.3v-0.7h0.3c0.2,0,0.3,0,0.3,0.3C100.4,18.9,100.3,19.1,100.1,19.1z
			 M100.1,17.6c-0.8,0-1.5,0.7-1.5,1.5s0.7,1.5,1.5,1.5s1.5-0.7,1.5-1.5S100.9,17.6,100.1,17.6z M100.1,20.4c-0.7,0-1.3-0.5-1.3-1.3
			s0.5-1.3,1.3-1.3c0.7,0,1.3,0.5,1.3,1.3C101.2,19.9,100.7,20.4,100.1,20.4z"/>
		<g>
			<path fill="#FFFFFF" d="M21.6,18.9h-6.3V0.8c0-0.3,0-0.7,0.2-1l0.2-0.3h-3v0.3c0,0.3,0,0.7,0,1v18.6c0,0.3,0,0.5-0.2,0.8
				l-0.2,0.3h10.2v-2l-0.5,0.2C22.1,18.9,21.9,18.9,21.6,18.9z"/>
			<path fill="#FFFFFF" d="M27.7,19.4V0.6c0-0.3,0-0.7,0.2-0.8L28-0.7h-3l0.2,0.3c0,0.3,0.2,0.7,0.2,0.8v18.6c0,0.3,0,0.7-0.2,0.8
				L25,20.2h3l-0.2-0.5C27.7,20,27.7,19.7,27.7,19.4z"/>
			<path fill="#FFFFFF" d="M32.1-0.2c0,0.3,0.2,0.7,0.2,0.8v18.6c0,0.3,0,0.7-0.2,0.8l-0.2,0.3h3L34.7,20c0-0.3-0.2-0.7-0.2-0.8
				v-8.7h5.1c0.3,0,0.7,0,1,0.2l0.7,0.2v-2L41,9c-0.3,0-0.7,0.2-1,0.2h-5.3V0.9h5.9c0.3,0,0.7,0,1,0.2H42v-1.6H31.8L32.1-0.2z"/>
			<path fill="#FFFFFF" d="M53.5,9h-6.1V0.9h6.4c0.3,0,0.5,0,0.8,0.2l0.5,0.2v-1.8H44.8L44.9,0c0,0.2,0.2,0.5,0.2,0.8v18.6
				c0,0.3,0,0.7,0,1v0.3h10.4v-2h-0.3c-0.7,0.2-1,0.2-1,0.2h-6.3v-8.4H54c0.5,0,0.8,0,1,0h0.3V8.7l-0.5,0.2C54.3,9,54,9,53.5,9z"/>
			<path fill="#FFFFFF" d="M88.9,19.4L81.8,0.1c0-0.2,0-0.3-0.2-0.5v-0.3h-2.3v0.3c0,0.3-0.2,0.5-0.2,0.5l-6.9,19.1
				c0,0.2-0.2,0.2-0.2,0.3c-0.2-0.2-0.3-0.3-0.5-0.5l-7.7-8.2c2-0.2,3.5-0.8,4.4-1.6c1.2-1,1.8-2.3,1.8-4.1c0-1.2-0.3-2.3-1-3.1
				c-0.7-0.8-1.3-1.5-2.3-1.8c-1-0.5-2.3-0.7-3.6-0.7h-4.9l0.2,0.3c0,0.3,0.2,0.7,0.2,0.8v18.6c0,0.3,0,0.7-0.2,0.8l-0.2,0.3h3
				L61.1,20c0-0.3-0.2-0.7-0.2-0.8v-7.9l7.4,8.2c0.3,0.3,0.5,0.5,0.5,0.8l0.2,0.2h2.6h1.6h0.3v-0.3c0-0.3,0-0.7,0.2-0.7l2.1-5.9H84
				l2.1,5.9c0,0.2,0.2,0.5,0.2,0.7v0.3h3.3L89.2,20C89.1,19.7,89.1,19.5,88.9,19.4z M83.5,12.1h-6.9L80,2.8L83.5,12.1z M61.1,0.9
				h1.5c1.5,0,2.5,0.3,3.3,0.8c0.5,0.3,0.8,0.8,1.2,1.5c0.3,0.7,0.5,1.3,0.5,2c0,1.6-0.7,2.6-2,3.5c-0.8,0.5-1.8,0.7-2.8,0.7h-1.8
				V0.9H61.1z"/>
			<path fill="#FFFFFF" d="M99.4-0.5v0.2c0,0.2-0.2,0.5-0.3,0.7l-4.8,8.9l-4.6-8.7c-0.3-0.5-0.3-0.7-0.3-0.8v-0.3h-3.3l0.5,0.5
				c0.2,0.2,0.3,0.3,0.5,0.7L92.7,11v8.2c0,0.3,0,0.7-0.2,0.8l-0.2,0.3h3L95.2,20c0-0.3-0.2-0.7-0.2-0.8V11l5.6-10.5
				c0.2-0.2,0.3-0.5,0.3-0.7l0.3-0.5h-1.8V-0.5z"/>
		</g>
	</g>
	<path fill="#FFFFFF" d="M4.4-3.5h-25.2c-0.5,0-0.8,0.3-0.8,0.8v25.4c0,0.5,0.3,0.8,0.8,0.8H4.4c0.5,0,0.8-0.3,0.8-0.8V-2.7
		C5.3-3.2,4.9-3.5,4.4-3.5z M-14,15.1h-4.6v-4.6h4.6V15.1z M-14,9.5h-4.6V4.9h4.6V9.5z M-14,4.1h-4.6v-4.6h4.6V4.1z M-8.6,20.5h-4.6
		v-4.6h4.6V20.5z M-8.6,9.5h-4.6V4.9h4.6V9.5z M-8.6,4.1h-4.6v-4.6h4.6V4.1z M-3,20.5h-4.6v-4.6H-3V20.5z M-3,15.1h-4.6v-4.6H-3
		V15.1z M-3,4.1h-4.6v-4.6H-3V4.1z M2.5,20.5h-4.6v-4.6h4.6V20.5z M2.5,15.1h-4.6v-4.6h4.6V15.1z M2.5,9.5h-4.6V4.9h4.6V9.5z"/>
</g>
</svg>
